<svg width="20" height="20" viewBox="0 0 20 20" fill="none" xmlns="http://www.w3.org/2000/svg">
<path d="M4.37006 4.37005C4.64126 4.09886 5.08096 4.09886 5.35215 4.37005L10.4167 9.43456L15.4812 4.37005C15.7524 4.09886 16.1921 4.09886 16.4633 4.37005C16.7345 4.64125 16.7345 5.08095 16.4633 5.35215L11.3988 10.4167L16.4633 15.4812C16.7345 15.7524 16.7345 16.1921 16.4633 16.4633C16.1921 16.7345 15.7524 16.7345 15.4812 16.4633L10.4167 11.3987L5.35215 16.4633C5.08096 16.7345 4.64126 16.7345 4.37006 16.4633C4.09886 16.1921 4.09886 15.7524 4.37006 15.4812L9.43457 10.4167L4.37006 5.35215C4.09886 5.08095 4.09886 4.64125 4.37006 4.37005Z" fill="#9CA3AF"/>
</svg>
