<svg width="18" height="19" viewBox="0 0 18 19" fill="none" xmlns="http://www.w3.org/2000/svg">
<path d="M3.93306 4.91475C4.17714 4.67067 4.57286 4.67067 4.81694 4.91475L9.375 9.47281L13.9331 4.91475C14.1771 4.67067 14.5729 4.67067 14.8169 4.91475C15.061 5.15883 15.061 5.55455 14.8169 5.79863L10.2589 10.3567L14.8169 14.9147C15.061 15.1588 15.061 15.5546 14.8169 15.7986C14.5729 16.0427 14.1771 16.0427 13.9331 15.7986L9.375 11.2406L4.81694 15.7986C4.57286 16.0427 4.17714 16.0427 3.93306 15.7986C3.68898 15.5546 3.68898 15.1588 3.93306 14.9147L8.49112 10.3567L3.93306 5.79863C3.68898 5.55455 3.68898 5.15883 3.93306 4.91475Z" fill="#FF6464"/>
</svg>
